{
	"asset":{
		"generator":"Khronos glTF Blender I/O v4.3.47",
		"version":"2.0"
	},
	"scene":0,
	"scenes":[
		{
			"name":"Scene",
			"nodes":[
				0,
				1,
				2,
				3
			]
		}
	],
	"nodes":[
		{
			"mesh":0,
			"name":"Cube",
			"translation":[
				0,
				1,
				-4.465229034423828
			]
		},
		{
			"mesh":1,
			"name":"Cube.001",
			"translation":[
				-2.418158531188965,
				1,
				-4.465229034423828
			]
		},
		{
			"mesh":2,
			"name":"Circle",
			"rotation":[
				0.5,
				0.5,
				-0.5,
				0.5
			],
			"scale":[
				0.8165144324302673,
				0.8165144324302673,
				0.8165144324302673
			],
			"translation":[
				0.5340654253959656,
				1.2283918857574463,
				-4.455411911010742
			]
		},
		{
			"mesh":3,
			"name":"Circle.001",
			"translation":[
				-1.2010269165039062,
				0,
				-0.04594091698527336
			]
		}
	],
	"materials":[
		{
			"doubleSided":true,
			"name":"cadenas",
			"pbrMetallicRoughness":{
				"baseColorFactor":[
					0.4696597456932068,
					0.2990421652793884,
					0.05506352335214615,
					1
				],
				"metallicFactor":0,
				"roughnessFactor":0.5
			}
		},
		{
			"doubleSided":true,
			"name":"Material",
			"pbrMetallicRoughness":{
				"baseColorFactor":[
					0.175292506814003,
					0.0717356726527214,
					0.041088830679655075,
					1
				],
				"metallicFactor":0,
				"roughnessFactor":0.5
			}
		},
		{
			"doubleSided":true,
			"name":"metal",
			"pbrMetallicRoughness":{
				"baseColorFactor":[
					0.20250342786312103,
					0.20250342786312103,
					0.20250342786312103,
					1
				],
				"metallicFactor":0,
				"roughnessFactor":0.5
			}
		}
	],
	"meshes":[
		{
			"name":"Cube",
			"primitives":[
				{
					"attributes":{
						"POSITION":0,
						"NORMAL":1,
						"TEXCOORD_0":2
					},
					"indices":3,
					"material":0
				}
			]
		},
		{
			"name":"Cube.001",
			"primitives":[
				{
					"attributes":{
						"POSITION":4,
						"NORMAL":5,
						"TEXCOORD_0":6
					},
					"indices":7,
					"material":0
				}
			]
		},
		{
			"name":"Circle",
			"primitives":[
				{
					"attributes":{
						"POSITION":8,
						"NORMAL":9,
						"TEXCOORD_0":10
					},
					"indices":11,
					"material":1
				}
			]
		},
		{
			"name":"Circle.001",
			"primitives":[
				{
					"attributes":{
						"POSITION":12,
						"NORMAL":13,
						"TEXCOORD_0":14
					},
					"indices":15,
					"material":2
				}
			]
		}
	],
	"accessors":[
		{
			"bufferView":0,
			"componentType":5126,
			"count":327,
			"max":[
				0.5480102300643921,
				1,
				1
			],
			"min":[
				-0.5480102300643921,
				-1,
				-1
			],
			"type":"VEC3"
		},
		{
			"bufferView":1,
			"componentType":5126,
			"count":327,
			"type":"VEC3"
		},
		{
			"bufferView":2,
			"componentType":5126,
			"count":327,
			"type":"VEC2"
		},
		{
			"bufferView":3,
			"componentType":5123,
			"count":1044,
			"type":"SCALAR"
		},
		{
			"bufferView":4,
			"componentType":5126,
			"count":384,
			"max":[
				2.9796175956726074,
				1,
				1
			],
			"min":[
				2.963192939758301,
				-1,
				-1
			],
			"type":"VEC3"
		},
		{
			"bufferView":5,
			"componentType":5126,
			"count":384,
			"type":"VEC3"
		},
		{
			"bufferView":6,
			"componentType":5126,
			"count":384,
			"type":"VEC2"
		},
		{
			"bufferView":7,
			"componentType":5123,
			"count":756,
			"type":"SCALAR"
		},
		{
			"bufferView":8,
			"componentType":5126,
			"count":74,
			"max":[
				0.3826834559440613,
				0.07975845038890839,
				1
			],
			"min":[
				-0.3826834559440613,
				0,
				-0.3742474317550659
			],
			"type":"VEC3"
		},
		{
			"bufferView":9,
			"componentType":5126,
			"count":74,
			"type":"VEC3"
		},
		{
			"bufferView":10,
			"componentType":5126,
			"count":74,
			"type":"VEC2"
		},
		{
			"bufferView":11,
			"componentType":5123,
			"count":432,
			"type":"SCALAR"
		},
		{
			"bufferView":12,
			"componentType":5126,
			"count":1864,
			"max":[
				1.3737568855285645,
				2.898350238800049,
				-3.8006725311279297
			],
			"min":[
				1.0228325128555298,
				1.8396340608596802,
				-5.077090263366699
			],
			"type":"VEC3"
		},
		{
			"bufferView":13,
			"componentType":5126,
			"count":1864,
			"type":"VEC3"
		},
		{
			"bufferView":14,
			"componentType":5126,
			"count":1864,
			"type":"VEC2"
		},
		{
			"bufferView":15,
			"componentType":5123,
			"count":10728,
			"type":"SCALAR"
		}
	],
	"bufferViews":[
		{
			"buffer":0,
			"byteLength":3924,
			"byteOffset":0,
			"target":34962
		},
		{
			"buffer":0,
			"byteLength":3924,
			"byteOffset":3924,
			"target":34962
		},
		{
			"buffer":0,
			"byteLength":2616,
			"byteOffset":7848,
			"target":34962
		},
		{
			"buffer":0,
			"byteLength":2088,
			"byteOffset":10464,
			"target":34963
		},
		{
			"buffer":0,
			"byteLength":4608,
			"byteOffset":12552,
			"target":34962
		},
		{
			"buffer":0,
			"byteLength":4608,
			"byteOffset":17160,
			"target":34962
		},
		{
			"buffer":0,
			"byteLength":3072,
			"byteOffset":21768,
			"target":34962
		},
		{
			"buffer":0,
			"byteLength":1512,
			"byteOffset":24840,
			"target":34963
		},
		{
			"buffer":0,
			"byteLength":888,
			"byteOffset":26352,
			"target":34962
		},
		{
			"buffer":0,
			"byteLength":888,
			"byteOffset":27240,
			"target":34962
		},
		{
			"buffer":0,
			"byteLength":592,
			"byteOffset":28128,
			"target":34962
		},
		{
			"buffer":0,
			"byteLength":864,
			"byteOffset":28720,
			"target":34963
		},
		{
			"buffer":0,
			"byteLength":22368,
			"byteOffset":29584,
			"target":34962
		},
		{
			"buffer":0,
			"byteLength":22368,
			"byteOffset":51952,
			"target":34962
		},
		{
			"buffer":0,
			"byteLength":14912,
			"byteOffset":74320,
			"target":34962
		},
		{
			"buffer":0,
			"byteLength":21456,
			"byteOffset":89232,
			"target":34963
		}
	],
	"buffers":[
		{
			"byteLength":110688,
			"uri":"cadenas.bin"
		}
	]
}
